<?xml version="1.0" encoding="utf-8"?>
<!-- Generator: Adobe Illustrator 16.0.2, SVG Export Plug-In . SVG Version: 6.00 Build 0)  -->
<!DOCTYPE svg PUBLIC "-//W3C//DTD SVG 1.1//EN" "http://www.w3.org/Graphics/SVG/1.1/DTD/svg11.dtd">
<svg version="1.1" id="Layer_2" xmlns="http://www.w3.org/2000/svg" xmlns:xlink="http://www.w3.org/1999/xlink" x="0px" y="0px"
	 width="106px" height="110px" viewBox="0 0 106 110" enable-background="new 0 0 106 110" xml:space="preserve">
<g>
	<g>
		<g id="XMLID_95_">
			<polygon fill="#9B6704" points="38.5,33.407 40.357,33.407 40.357,32.207 38.5,32.207 38.5,32.207 9.56,42.669 9.203,43.999 
				38.5,33.407 			"/>
		</g>
		<g id="XMLID_93_">
			<polygon fill="#9B6704" points="40.357,36.62 40.357,34.226 38.5,34.226 38.5,34.226 9.309,44.774 8.781,47.359 38.5,36.62 			
				"/>
		</g>
		<g id="XMLID_90_">
			<polygon fill="#9B6704" points="67.543,33.407 96.84,43.999 96.482,42.669 67.543,32.207 67.543,32.207 65.686,32.207 
				65.686,33.407 67.543,33.407 			"/>
		</g>
		<g id="XMLID_89_">
			<polygon fill="#9B6704" points="97.262,47.359 96.734,44.774 67.543,34.226 67.543,34.226 65.686,34.226 65.686,36.62 
				67.543,36.62 			"/>
		</g>
		<g id="XMLID_88_">
			<path fill="#9B6704" d="M65.096,29.139V28.36c0-2.15-5.082-3.901-11.462-4.004v-2.727c0.301-0.114,0.637-0.222,0.818-0.222
				c0.757,0,2.118,0.913,2.874,0.952c0.378,0.019,1.437-0.476,1.437-0.476v-3.806c0,0-1.058,0.476-1.437,0.476
				c-0.757,0-2.118-0.913-2.874-0.952c-0.378-0.02-1.437,0.476-1.437,0.476v6.271c-6.642,0.005-12.021,1.8-12.021,4.014v0.78
				c2.091-2.018,6.639-3.39,12.051-3.39S63.005,27.122,65.096,29.139z"/>
		</g>
		<g id="XMLID_87_">
			<path fill="#9B6704" d="M65.096,35.471V30.45c-1.371-2.183-6.327-3.855-12.051-3.855c-5.725,0-10.682,1.673-12.051,3.856v5.02
				c2.091-1.667,6.639-2.8,12.051-2.8S63.005,33.804,65.096,35.471z"/>
		</g>
		<g id="XMLID_86_">
			<path fill="#9B6704" d="M62.057,34.819c-0.859-0.304-1.853-0.571-2.985-0.782v3.172l2.985,0.594V34.819z"/>
		</g>
		<g id="XMLID_85_">
			<rect x="44.024" y="73.122" fill="#9B6704" width="2.998" height="1.22"/>
		</g>
		<g id="XMLID_84_">
			<rect x="44.024" y="74.937" fill="#9B6704" width="2.998" height="1.174"/>
		</g>
		<g id="XMLID_83_">
			<rect x="59.071" y="74.937" fill="#9B6704" width="2.985" height="1.174"/>
		</g>
		<g id="XMLID_82_">
			<rect x="59.071" y="73.122" fill="#9B6704" width="2.985" height="1.22"/>
		</g>
		<g id="XMLID_81_">
			<polygon fill="#9B6704" points="47.021,39.151 47.021,38.093 44.003,38.707 44.003,48.177 47.021,47.563 47.021,44.013 
				44.857,44.456 44.857,39.594 			"/>
		</g>
		<g id="XMLID_80_">
			<polygon fill="#9B6704" points="47.021,49.308 47.021,48.249 44.003,48.861 44.003,58.332 47.021,57.721 47.021,54.17 
				44.856,54.613 44.856,49.751 			"/>
		</g>
		<g id="XMLID_79_">
			<polygon fill="#9B6704" points="62.077,38.707 59.071,38.096 59.071,39.154 61.224,39.594 61.224,44.456 59.071,44.016 
				59.071,47.566 62.077,48.177 			"/>
		</g>
		<g id="XMLID_78_">
			<polygon fill="#9B6704" points="62.077,48.861 59.071,48.252 59.071,49.311 61.224,49.751 61.224,54.613 59.071,54.172 
				59.071,57.724 62.077,58.332 			"/>
		</g>
		<g id="XMLID_75_">
			<path fill="#9B6704" d="M54.806,37.575h-3.584l0,9.47h3.586L54.806,37.575z M54.296,43.495h-2.564v-4.862h2.564V43.495z"/>
		</g>
		<g id="XMLID_72_">
			<path fill="#9B6704" d="M54.808,53.652L54.808,53.652v-5.921h-3.587l0,9.472h3.586V53.652z M54.297,53.652h-2.566V48.79h2.566
				V53.652z"/>
		</g>
		<g id="XMLID_71_">
			<path fill="#9B6704" d="M54.807,33.568c-0.575-0.027-1.153-0.052-1.762-0.052c-0.63,0-1.229,0.025-1.823,0.054v3.354h3.585
				V33.568z"/>
		</g>
		<g id="XMLID_70_">
			<rect x="51.222" y="73.122" fill="#9B6704" width="3.585" height="1.22"/>
		</g>
		<g id="XMLID_69_">
			<path fill="#9B6704" d="M47.021,34.036c-1.137,0.212-2.136,0.48-2.998,0.786v2.967l2.998-0.597V34.036z"/>
		</g>
		<g id="XMLID_68_">
			<rect x="51.222" y="74.937" fill="#9B6704" width="3.585" height="1.174"/>
		</g>
		<g id="XMLID_56_">
			<g id="XMLID_57_">
				<path fill="#9B6704" d="M95.863,50.553v-2.395l-4.201-1.518v26.474h-2.41v-5.592l1.791,0.133v-2.369l-1.791-0.152V62.44
					l1.791,0.314v-2.395l-1.791-0.313v-4.664l1.791,0.477v-2.394l-1.791-0.477v-4.825l1.791,0.647v-2.394l-4.202-1.519v28.216h-2.41
					v-6.021l1.791,0.156v-2.395l-1.791-0.156v-3.083l1.791,0.314v-2.395l-1.791-0.313v-5.125l1.791,0.478v-2.395l-1.791-0.478
					v-5.282l1.791,0.647v-2.394l-4.201-1.518v29.958h-2.41v-6.44l1.791,0.155v-2.394l-1.791-0.156v-3.508l1.791,0.313v-2.394
					l-1.791-0.313v-5.566l1.791,0.478v-2.395l-1.791-0.477V44.68l1.791,0.647v-2.394l-4.201-1.518v31.7H74.79v-6.86l1.792,0.156
					v-2.394l-1.792-0.156v-3.934l1.792,0.314v-2.394l-1.792-0.314v-6.006l1.792,0.477V49.61l-1.792-0.478v-6.195l1.792,0.647v-2.394
					l-4.202-1.519v33.442h-2.41v-7.278l1.792,0.156v-2.395l-1.792-0.156v-4.359l1.792,0.314v-2.395l-1.792-0.313v-6.448l1.792,0.478
					v-2.394l-1.792-0.478v-6.652l1.792,0.647v-2.394l-4.185-1.512L67.56,76.631h-0.017h-0.619V37.905h-1.238v38.726h-0.617
					l0.028-40.02c-0.443-0.558-1.29-1.092-2.432-1.56v42.772h-0.607V76.7h-2.985v1.124h-0.616V33.939
					c-0.941-0.152-1.941-0.277-3.031-0.346v3.331v40.907h-0.617V76.7h-3.585v1.124h-0.617V33.599
					c-1.064,0.07-2.044,0.191-2.966,0.34v43.885h-0.617V76.7h-2.998v1.124h-0.617V35.06c-1.132,0.467-1.973,0.998-2.413,1.553V76.7
					h-0.018v-0.069h-0.619V37.905h-1.238v38.726H38.5h-0.017l-0.016-38.695l-4.185,1.512v2.394l1.791-0.647v6.652l-1.791,0.478
					v2.394l1.791-0.478v6.448l-1.791,0.313v2.395l1.791-0.314v4.359l-1.791,0.156v2.395l1.791-0.156v7.278h-2.41V39.672
					l-4.202,1.519v2.394l1.792-0.647v6.195l-1.792,0.478v2.394l1.792-0.477v6.006l-1.792,0.314v2.394l1.792-0.314v3.934
					l-1.792,0.156v2.394l1.792-0.156v6.86h-2.411v-31.7l-4.201,1.518v2.394l1.791-0.647v5.738l-1.791,0.477v2.395l1.791-0.478v5.566
					l-1.791,0.313v2.394l1.791-0.313v3.508l-1.791,0.156v2.394l1.791-0.155v6.44h-2.41V43.157l-4.201,1.518v2.394l1.791-0.647v5.282
					l-1.791,0.478v2.395l1.791-0.478v5.125l-1.791,0.313v2.395l1.791-0.314v3.083l-1.791,0.156v2.395l1.791-0.156v6.021h-2.41
					V44.898L15,46.417v2.394l1.791-0.647v4.825L15,53.466v2.394l1.791-0.477v4.664L15,60.359v2.395l1.791-0.314v2.695L15,65.287
					v2.369l1.791-0.133v5.592h-2.41V46.641l-4.201,1.518v2.395l1.791-0.647v4.368l-1.791,0.478v2.395l1.791-0.478v4.223
					l-1.791,0.313v2.394l1.791-0.314v2.26l-1.711,0.146c0.177,0.483,0.445,1.503,0.761,2.26l0.014,0.016l1.129-0.096v2.394
					l-0.193,0.015v0.307l2.243,3.766v0.995h0.306l0.962,1.287h1.27v1.2h-0.61l0.649,1.234V79.1h0.019h72.424h0.019v-0.035
					l0.649-1.234h-0.61v-1.2h1.27l0.962-1.287h0.306V74.35l2.243-3.766v-0.307l-0.192-0.015v-2.394l1.129,0.096l0.014-0.016
					c0.315-0.757,0.583-1.777,0.761-2.26l-1.711-0.146v-2.26l1.791,0.314v-2.394l-1.791-0.313v-4.223l1.791,0.478v-2.395
					l-1.791-0.478v-4.368L95.863,50.553z M21.611,77.831h-2.41v-1.2h2.41V77.831z M26.432,77.831h-2.41v-1.2h2.41V77.831z
					 M31.252,77.831h-2.411v-1.2h2.411V77.831z M36.073,77.831h-2.41v-1.2h2.41V77.831z M72.38,77.831h-2.41v-1.2h2.41V77.831z
					 M77.201,77.831H74.79v-1.2h2.411V77.831z M82.021,77.831h-2.41v-1.2h2.41V77.831z M86.841,77.831h-2.41v-1.2h2.41V77.831z"/>
			</g>
		</g>
		<g id="XMLID_43_">
			<g id="XMLID_54_">
				<path fill="#002F5E" d="M18.4,95.15c0.305-0.303,0.486-0.739,0.486-1.201c0-1.079-2.24-3.021-2.24-3.021
					c-0.196-0.184-0.382-0.38-0.575-0.567l-2.121,2.122c-0.305,0.302-0.704,0.699-0.704,1.162c0,0.051,0.022,0.1,0.03,0.151
					C13.371,93.86,16.926,96.285,18.4,95.15z"/>
			</g>
			<g id="XMLID_49_">
				<path fill="#0072BC" d="M23.182,90.371L18.4,95.15c-1.475,1.135-5.029-1.291-5.124-1.355c0.076,0.475,0.47,0.909,0.825,1.186
					C24.351,104.241,38.087,109.996,53,110c14.913-0.004,28.649-5.759,38.898-15.019c0.354-0.276,0.749-0.711,0.825-1.186
					c-0.094,0.064-3.649,2.49-5.123,1.355l-4.755-4.779c-8.218,6.431-18.58,10.275-29.83,10.275
					C41.764,100.646,31.4,96.803,23.182,90.371"/>
			</g>
			<g id="XMLID_45_">
				<path fill="#447FC1" d="M89.917,90.374C99.823,80.802,106,67.441,106,52.661C106,23.629,82.226,0.008,53,0
					C23.774,0.008,0,23.629,0,52.661c0,14.774,6.172,28.129,16.071,37.7c0.193,0.187,0.379,0.383,0.575,0.567
					c0,0,2.24,1.942,2.24,3.021c0,0.462-0.182,0.898-0.486,1.201l6.763-6.798c0.304-0.303,0.493-0.721,0.493-1.183
					c0-0.534-0.252-1.009-0.644-1.316C15.603,77.911,9.417,65.888,9.417,52.661C9.417,28.749,28.929,9.363,53,9.355
					c24.071,0.008,43.583,19.394,43.583,43.306c0,13.227-6.186,25.25-15.595,33.192c-0.392,0.307-0.644,0.782-0.644,1.316
					c0,0.462,0.188,0.88,0.493,1.183l2.008,2.019l4.664,4.688c-0.26-0.297-0.426-0.687-0.426-1.11c0-1.079,2.24-3.021,2.24-3.021
					c0.196-0.184,0.381-0.38,0.575-0.567"/>
			</g>
			<g id="XMLID_44_">
				<path fill="#002F5E" d="M87.569,95.159c-0.305-0.303-0.486-0.739-0.486-1.201c0-1.079,2.24-3.021,2.24-3.021
					c0.196-0.184,0.381-0.38,0.575-0.567l2.121,2.121c0.305,0.302,0.704,0.7,0.704,1.162c0,0.052-0.022,0.1-0.03,0.151
					C92.599,93.869,89.043,96.293,87.569,95.159z"/>
			</g>
		</g>
		<g id="XMLID_94_">
			<path id="XMLID_92_" fill="#6B4500" d="M36.836,92.915c-1.376,0-1.871-0.886-1.871-2.755v-2.511c0-1.869,0.495-2.755,1.871-2.755
				c1.215,0,1.871,0.812,1.871,2.371v0.384h-1.172v-0.608c0-0.78-0.193-1.165-0.699-1.165s-0.699,0.384-0.699,1.165v3.727
				c0,0.78,0.193,1.165,0.699,1.165s0.699-0.385,0.699-1.165V90.03h1.172v0.492C38.708,92.092,38.062,92.915,36.836,92.915z"/>
			<path id="XMLID_327_" fill="#6B4500" d="M39.935,85.042h3.57v7.723h-1.151v-6.676h-1.269v6.676h-1.15V85.042z"/>
			<path id="XMLID_329_" fill="#6B4500" d="M45.72,87.937c0.172-0.405,0.516-0.672,1.108-0.672c1.215,0,1.365,0.951,1.365,1.934
				v1.645c0,1.132-0.322,2.029-1.634,2.029c-1.269,0-1.613-0.865-1.613-2.04v-1.645c0-0.449,0.01-1.154,0.075-1.667
				c0.097-0.716,0.29-1.506,0.936-1.913c0.667-0.416,1.559-0.406,2.129-0.565v1.036c-0.484,0.192-1.194,0.246-1.57,0.395
				c-0.71,0.288-0.785,0.77-0.817,1.463H45.72z M47.118,91.173v-2.329c0-0.448-0.258-0.684-0.548-0.684
				c-0.323,0-0.548,0.213-0.548,0.684v2.339c0,0.566,0.193,0.791,0.538,0.791C46.882,91.975,47.118,91.771,47.118,91.173z"/>
			<path id="XMLID_332_" fill="#6B4500" d="M49.636,85.042h3.258v1.067h-2.108v6.655h-1.15V85.042z"/>
			<path id="XMLID_334_" fill="#6B4500" d="M53.745,91.771c0.107,0.033,0.204,0.075,0.43,0.075c0.333,0,0.549-0.096,0.71-0.396
				c0.054-0.096,0.15-0.374,0.171-0.512l-1.548-5.896h1.193l0.915,3.92l0.591-3.92h1.15l-1.15,5.244
				c-0.183,0.813-0.312,1.506-0.581,1.966c-0.205,0.353-0.538,0.662-1.323,0.662c-0.205,0-0.419-0.064-0.559-0.106V91.771z"/>
			<path id="XMLID_336_" fill="#6B4500" d="M58.24,85.042h3.57v7.723h-1.15v-6.676h-1.269v6.676H58.24V85.042z"/>
			<path id="XMLID_338_" fill="#6B4500" d="M63.887,86.025h-1.064v-0.983h3.28v0.983h-1.064v6.74h-1.151V86.025z"/>
			<path id="XMLID_340_" fill="#6B4500" d="M70.082,92.765h-2.86v1.73h-1.119v-2.777h0.506c0.183-0.342,0.333-0.727,0.463-1.24
				c0.161-0.64,0.258-1.239,0.301-2.232c0.042-1.057,0.064-2.339,0.075-3.204h3.129v6.676H71.2v2.777h-1.119V92.765z M69.415,91.718
				v-5.629h-0.936c-0.022,1.742-0.032,2.649-0.205,3.664c-0.15,0.865-0.269,1.218-0.515,1.965H69.415z"/>
		</g>
	</g>
	<g id="XMLID_48_">
		<path fill="#FFFFFF" d="M18.799,83.115c0.51,0.559,0.328,1.089-0.442,1.781l-1.034,0.929c-0.77,0.692-1.318,0.819-1.828,0.26
			c-0.45-0.494-0.358-1.061,0.284-1.638l0.159-0.143l0.434,0.476l-0.25,0.226c-0.321,0.289-0.408,0.509-0.221,0.715
			c0.188,0.205,0.417,0.142,0.738-0.147l1.536-1.38c0.321-0.289,0.408-0.51,0.22-0.715c-0.187-0.206-0.417-0.142-0.738,0.147
			l-0.304,0.273l-0.434-0.477l0.202-0.182C17.768,82.66,18.346,82.617,18.799,83.115z"/>
		<path fill="#FFFFFF" d="M13.983,84.224l-0.519-0.639l2.93-3.189l0.407,0.5l-0.608,0.625l0.399,0.491l0.739-0.463l0.392,0.483
			L13.983,84.224z M15.787,81.923l-1.793,1.74l0.018,0.023l2.1-1.365L15.787,81.923z"/>
		<path fill="#FFFFFF" d="M12.537,82.384l-0.369-0.513l1.448-1.027l-0.407-0.566l-1.448,1.026l-0.369-0.513l3.491-2.474l0.368,0.513
			l-1.569,1.113l0.406,0.565l1.569-1.112l0.369,0.513L12.537,82.384z"/>
		<path fill="#FFFFFF" d="M11.906,78.318l-0.073-0.115c-0.142-0.225-0.306-0.165-0.707,0.057c-0.291,0.16-0.46,0.258-0.593,0.313
			c-0.318,0.128-0.579,0.082-0.752-0.193C9.753,78.335,9.648,78.158,9.64,78.1l0.493-0.307c0.008,0.023,0.021,0.043,0.03,0.058
			c0.076,0.12,0.197,0.156,0.369,0.063c0.211-0.11,0.288-0.166,0.585-0.315c0.288-0.143,0.476-0.177,0.652,0.012l0.015-0.009
			c-0.066-0.16-0.111-0.32,0.115-0.551c0.158-0.161,0.421-0.332,0.679-0.512c0.252-0.178,0.275-0.275,0.193-0.405
			c-0.016-0.025-0.031-0.05-0.052-0.072l0.493-0.306c0.058,0.026,0.175,0.189,0.216,0.254c0.176,0.279,0.093,0.582-0.143,0.784
			c-0.155,0.131-0.347,0.271-0.53,0.392c-0.417,0.272-0.604,0.431-0.434,0.701l0.079,0.125l1.625-1.01l0.34,0.54l-3.638,2.261
			l-0.34-0.54L11.906,78.318z"/>
		<path fill="#FFFFFF" d="M9.496,76.723l0.284,0.512l-0.478,0.263l-0.876-1.576l0.478-0.262l0.285,0.511l3.28-1.801l0.308,0.552
			L9.496,76.723z"/>
		<path fill="#FFFFFF" d="M10.303,74.386L9.76,73.308l0.458-0.227l0.542,1.077L10.303,74.386z"/>
		<path fill="#FFFFFF" d="M7.264,73.588l-0.792-1.793l3.931-1.712l0.255,0.578L7.26,72.14l0.281,0.638l3.398-1.48l0.255,0.578
			L7.264,73.588z"/>
		<path fill="#FFFFFF" d="M6.033,70.7l-0.59-1.582l0.54-0.199l0.37,0.99L7.465,69.5l-0.289-0.775l0.551-0.203l0.289,0.774
			l1.28-0.471l-0.404-1.083l0.54-0.199l0.625,1.676L6.033,70.7z"/>
		<path fill="#FFFFFF" d="M5.556,67.724l0.176,0.557l-0.521,0.162l-0.542-1.716l0.521-0.162l0.176,0.557l3.573-1.113l0.19,0.602
			L5.556,67.724z"/>
		<path fill="#FFFFFF" d="M4.438,65.907l-0.427-1.632l0.558-0.144l0.267,1.021l1.149-0.295l-0.208-0.8l0.568-0.146l0.209,0.799
			l1.322-0.341l-0.292-1.118l0.557-0.144l0.452,1.729L4.438,65.907z"/>
		<path fill="#FFFFFF" d="M3.805,63.367L3.65,62.599c-0.189-0.937,0.007-1.312,0.956-1.502c0.884-0.176,1.312,0.081,1.475,0.891
			l0.055,0.271l1.751-0.35l0.125,0.619L3.805,63.367z M5.554,62.165c-0.093-0.462-0.315-0.538-0.85-0.432
			c-0.454,0.09-0.616,0.273-0.535,0.678l0.047,0.231l1.379-0.275L5.554,62.165z"/>
		<path fill="#FFFFFF" d="M3.253,60.427l-0.254-1.856l0.553-0.075l0.168,1.232l1.158-0.157l-0.045-0.333
			c-0.082-0.595,0.244-1.15,1.148-1.273c0.923-0.125,1.305,0.306,1.398,0.982l0.124,0.905L3.253,60.427z M6.865,59.304L6.827,59.03
			c-0.037-0.269-0.217-0.495-0.746-0.423c-0.57,0.078-0.727,0.331-0.689,0.61l0.039,0.28L6.865,59.304z"/>
		<path fill="#FFFFFF" d="M6.624,57.379c0.013-0.06,0.032-0.115,0.022-0.238c-0.015-0.182-0.078-0.295-0.25-0.371
			c-0.056-0.025-0.213-0.065-0.292-0.071l-3.195,1.107l-0.053-0.652l2.13-0.672L2.79,56.333l-0.051-0.629L5.693,56.1
			c0.458,0.063,0.848,0.104,1.114,0.23c0.205,0.095,0.391,0.264,0.425,0.692c0.009,0.113-0.017,0.232-0.034,0.311L6.624,57.379z"/>
		<path fill="#FFFFFF" d="M2.696,54.936l-0.021-0.784c-0.025-0.956,0.233-1.293,1.202-1.318c0.902-0.023,1.279,0.304,1.301,1.129
			l0.007,0.277l1.787-0.046l0.017,0.63L2.696,54.936z M4.627,54.048c-0.013-0.472-0.217-0.585-0.764-0.57
			C3.4,53.49,3.208,53.642,3.219,54.055l0.006,0.236l1.407-0.037L4.627,54.048z"/>
		<path fill="#FFFFFF" d="M2.652,51.981l0.051-1.787l0.594,0.017l-0.033,1.156l3.699,0.104l-0.018,0.631L2.652,51.981z"/>
		<path fill="#FFFFFF" d="M7.192,48.821c-0.063,0.752-0.576,0.981-1.611,0.897l-1.39-0.114c-1.035-0.085-1.503-0.396-1.441-1.147
			c0.056-0.664,0.535-0.985,1.398-0.914l0.213,0.017L4.309,48.2l-0.337-0.027c-0.432-0.035-0.653,0.053-0.676,0.329
			c-0.023,0.277,0.181,0.4,0.613,0.435l2.063,0.169c0.432,0.036,0.654-0.053,0.677-0.329c0.023-0.276-0.181-0.399-0.613-0.435
			l-0.408-0.033l0.053-0.641l0.272,0.022C6.822,47.762,7.248,48.151,7.192,48.821z"/>
		<path fill="#FFFFFF" d="M4.9,46.078l0.019-0.135c0.039-0.263-0.127-0.322-0.576-0.41c-0.327-0.065-0.52-0.098-0.657-0.142
			c-0.327-0.106-0.495-0.31-0.449-0.63c0.007-0.053,0.043-0.257,0.074-0.306l0.576,0.083c-0.01,0.022-0.013,0.046-0.015,0.063
			c-0.021,0.14,0.048,0.245,0.241,0.284c0.232,0.051,0.327,0.059,0.652,0.135c0.313,0.075,0.479,0.17,0.49,0.428l0.018,0.002
			c0.054-0.165,0.124-0.316,0.446-0.347c0.225-0.021,0.538,0.018,0.852,0.044c0.308,0.026,0.389-0.033,0.411-0.185
			c0.004-0.029,0.008-0.059,0.007-0.089l0.576,0.083c0.028,0.058,0.011,0.258,0,0.333c-0.048,0.327-0.307,0.505-0.62,0.507
			c-0.204,0.001-0.442-0.015-0.66-0.041c-0.496-0.059-0.742-0.058-0.788,0.257L5.476,46.16l1.898,0.272l-0.091,0.63l-4.25-0.608
			l0.091-0.63L4.9,46.078z"/>
		<path fill="#FFFFFF" d="M3.49,43.503l0.13-0.624l2.158,0.444l0.41,0.102l-0.262-0.144l-1.918-1.129l-0.227-0.047l0.127-0.612
			l4.207,0.864l-0.127,0.613L5.8,42.52l-0.409-0.108l0.271,0.152l1.913,1.128l0.25,0.052l-0.13,0.625L3.49,43.503z"/>
		<path fill="#FFFFFF" d="M3.667,38.206c0.469,0.128,0.686,0.433,0.528,1.001c-0.159,0.568-0.502,0.719-0.972,0.59l0.146-0.523
			c0.229,0.063,0.416,0.035,0.471-0.165c0.056-0.199-0.09-0.318-0.319-0.381L3.667,38.206z M4.205,40.3l0.171-0.614l2.123,0.584
			L6.9,40.399l-0.251-0.161l-1.837-1.253l-0.224-0.061l0.168-0.603l4.138,1.139l-0.168,0.603l-2.152-0.592l-0.4-0.135l0.261,0.17
			l1.833,1.251l0.246,0.068l-0.171,0.614L4.205,40.3z"/>
		<path fill="#FFFFFF" d="M5.618,35.754l0.636-1.672L6.81,34.29l-0.411,1.082l3.461,1.298l-0.224,0.591L5.618,35.754z"/>
		<path fill="#FFFFFF" d="M6.877,32.445c0.306-0.685,0.869-0.739,1.819-0.32l1.274,0.562c0.949,0.419,1.289,0.865,0.98,1.555
			c-0.308,0.69-0.869,0.739-1.818,0.32L7.857,34C6.908,33.581,6.569,33.135,6.877,32.445z M9.704,34.111
			c0.396,0.175,0.634,0.164,0.748-0.09c0.113-0.253-0.039-0.436-0.435-0.61l-1.893-0.835c-0.396-0.174-0.635-0.164-0.748,0.09
			s0.039,0.436,0.435,0.611L9.704,34.111z"/>
		<path fill="#FFFFFF" d="M12.213,31.645c-0.351,0.67-0.915,0.685-1.837,0.208l-1.238-0.64c-0.922-0.477-1.233-0.944-0.882-1.614
			c0.31-0.591,0.877-0.704,1.647-0.306l0.189,0.098l-0.298,0.571l-0.301-0.156c-0.385-0.198-0.624-0.203-0.752,0.044
			c-0.129,0.246,0.012,0.438,0.396,0.637l1.839,0.95c0.385,0.199,0.624,0.203,0.753-0.043c0.129-0.246-0.012-0.438-0.396-0.637
			l-0.364-0.188l0.299-0.57l0.243,0.125C12.285,30.524,12.526,31.048,12.213,31.645z"/>
		<path fill="#FFFFFF" d="M12.388,29.99c0.045-0.042,0.093-0.075,0.157-0.182c0.094-0.157,0.108-0.286,0.011-0.446
			c-0.031-0.052-0.136-0.176-0.197-0.225l-3.252-0.931l0.336-0.563l2.13,0.674l-1.706-1.383l0.324-0.543l2.181,2.019
			c0.336,0.315,0.632,0.572,0.775,0.828c0.111,0.195,0.165,0.44-0.056,0.81c-0.058,0.096-0.149,0.18-0.209,0.233L12.388,29.99z"/>
		<path fill="#FFFFFF" d="M15.115,26.719l-0.882,1.304l0.8,0.533l-0.345,0.51l-1.283-0.856l0.156-0.23
			c-0.102-0.188-0.233-0.375-0.43-0.592c-0.247-0.271-0.493-0.5-0.939-0.826c-0.475-0.346-1.061-0.75-1.458-1.021l0.964-1.427
			l3.085,2.057l0.192-0.284l1.284,0.856l-0.345,0.51L15.115,26.719z M14.425,26.7l-2.601-1.735l-0.289,0.427
			c0.798,0.546,1.214,0.831,1.63,1.222c0.353,0.335,0.479,0.498,0.749,0.841L14.425,26.7z"/>
		<path fill="#FFFFFF" d="M12.69,22.779l0.5-0.651l3.813,2.064l-0.393,0.511l-0.754-0.438l-0.385,0.502l0.628,0.602l-0.378,0.493
			L12.69,22.779z M15.367,23.97l-2.127-1.315l-0.018,0.023l1.832,1.699L15.367,23.97z"/>
		<path fill="#FFFFFF" d="M14.145,20.939l0.514-0.595c0.625-0.726,1.045-0.804,1.779-0.178c0.685,0.583,0.744,1.076,0.203,1.703
			L16.46,22.08l1.356,1.155l-0.413,0.478L14.145,20.939z M16.176,21.566c0.309-0.358,0.233-0.578-0.182-0.931
			c-0.351-0.3-0.597-0.314-0.867-0.001l-0.154,0.18l1.068,0.909L16.176,21.566z"/>
		<path fill="#FFFFFF" d="M19.943,21.032c-0.528,0.542-1.072,0.397-1.819-0.32l-1.003-0.962c-0.747-0.717-0.912-1.252-0.384-1.795
			c0.466-0.479,1.042-0.426,1.666,0.172l0.154,0.147l-0.45,0.462l-0.243-0.233c-0.312-0.299-0.54-0.37-0.734-0.171
			c-0.194,0.199-0.114,0.423,0.197,0.722l1.49,1.43c0.312,0.299,0.54,0.371,0.733,0.171s0.114-0.423-0.197-0.723l-0.294-0.282
			l0.45-0.462l0.196,0.188C20.332,19.979,20.413,20.548,19.943,21.032z"/>
		<path fill="#FFFFFF" d="M18.79,16.819l-0.431,0.397l-0.372-0.397l1.327-1.225l0.372,0.397l-0.431,0.398l2.55,2.727l-0.466,0.429
			L18.79,16.819z"/>
		<path fill="#FFFFFF" d="M19.96,15.03l0.61-0.506c0.684-0.566,1.097-0.58,1.649,0.076c0.323,0.385,0.423,0.678,0.269,0.982
			c0.352-0.115,0.667,0.039,1.016,0.455c0.563,0.669,0.517,1.175-0.161,1.739l-0.633,0.525L19.96,15.03z M21.742,15.872
			c0.318-0.265,0.3-0.48,0.003-0.833c-0.289-0.344-0.492-0.382-0.797-0.129l-0.155,0.128l0.803,0.955L21.742,15.872z M23.017,17.333
			c0.333-0.275,0.303-0.513-0.039-0.92c-0.308-0.366-0.523-0.402-0.847-0.134l-0.173,0.144l0.886,1.054L23.017,17.333z"/>
		<path fill="#FFFFFF" d="M22.349,13.097l1.364-1.006l0.343,0.459l-0.853,0.63l0.708,0.947l0.667-0.493l0.351,0.469l-0.667,0.492
			l0.814,1.089l0.935-0.689l0.343,0.459l-1.445,1.066L22.349,13.097z"/>
		<path fill="#FFFFFF" d="M24.499,11.552l0.53-0.346l0.977,1.478l0.585-0.382l-0.976-1.478l0.531-0.346l2.353,3.562l-0.531,0.346
			l-1.058-1.601l-0.585,0.381l1.058,1.602l-0.53,0.346L24.499,11.552z"/>
		<path fill="#FFFFFF" d="M27.161,9.858l0.552-0.312l0.88,1.539l0.609-0.344l-0.88-1.538l0.552-0.312l2.121,3.708l-0.553,0.312
			l-0.953-1.667l-0.609,0.344l0.953,1.667l-0.553,0.312L27.161,9.858z"/>
		<path fill="#FFFFFF" d="M29.957,8.306l0.574-0.271l0.725,1.513l0.29-0.137c0.617-0.292,1.153-0.107,1.563,0.751
			c0.388,0.81,0.125,1.32-0.438,1.586l-0.869,0.41L29.957,8.306z M32.136,11.386l0.241-0.114c0.183-0.086,0.412-0.267,0.131-0.853
			c-0.278-0.581-0.562-0.584-0.771-0.485l-0.242,0.114L32.136,11.386z M33.835,11.198L31.99,7.345l0.574-0.271l1.845,3.853
			L33.835,11.198z"/>
		<path fill="#FFFFFF" d="M35.079,4.925c0.176,0.451,0.06,0.805-0.493,1.019c-0.553,0.213-0.879,0.029-1.056-0.421l0.509-0.196
			c0.086,0.22,0.22,0.351,0.414,0.276c0.194-0.075,0.203-0.261,0.118-0.481L35.079,4.925z M33.71,6.603l0.598-0.23l0.796,2.039
			l0.136,0.396L35.22,8.512l-0.086-2.211l-0.084-0.214l0.586-0.226l1.551,3.974l-0.586,0.226l-0.807-2.066l-0.13-0.398l0.019,0.308
			l0.084,2.206l0.092,0.236l-0.597,0.23L33.71,6.603z"/>
		<path fill="#FFFFFF" d="M39.028,8.644c0.062,0,0.12,0.008,0.24-0.025c0.177-0.051,0.277-0.135,0.316-0.318
			c0.014-0.059,0.022-0.222,0.012-0.298l-1.73-2.896L38.5,4.925l1.089,1.943L39.3,4.696l0.611-0.174l0.197,2.959
			c0.028,0.459,0.066,0.848-0.005,1.133c-0.054,0.218-0.184,0.433-0.601,0.552c-0.108,0.031-0.233,0.03-0.313,0.029L39.028,8.644z"
			/>
		<path fill="#FFFFFF" d="M40.685,4.328l0.62-0.14l0.393,1.727l0.684-0.153l-0.394-1.727l0.62-0.14l0.948,4.161l-0.62,0.14
			l-0.426-1.871l-0.684,0.154l0.426,1.87l-0.62,0.14L40.685,4.328z"/>
		<path fill="#FFFFFF" d="M43.789,3.665l0.634-0.102l0.35,2.162l0.049,0.417l0.043-0.294l0.381-2.182l-0.037-0.228l0.622-0.099
			l0.681,4.212l-0.622,0.1l-0.354-2.191l-0.043-0.417l-0.047,0.306l-0.382,2.177l0.04,0.25L44.47,7.877L43.789,3.665z"/>
		<path fill="#FFFFFF" d="M47.019,3.193l0.792-0.075c0.887-0.083,1.236,0.138,1.317,0.99c0.048,0.5-0.037,0.798-0.337,0.962
			c0.356,0.104,0.528,0.407,0.58,0.947c0.083,0.869-0.244,1.262-1.125,1.345L47.424,7.44L47.019,3.193z M48.01,4.89
			c0.414-0.04,0.521-0.227,0.478-0.686c-0.043-0.446-0.188-0.593-0.584-0.555l-0.201,0.019l0.118,1.239L48.01,4.89z M48.229,6.813
			c0.432-0.041,0.543-0.252,0.493-0.781c-0.045-0.476-0.203-0.626-0.623-0.587l-0.225,0.021l0.13,1.369L48.229,6.813z"/>
		<path fill="#FFFFFF" d="M50.083,2.94l1.698-0.065l0.021,0.573l-1.063,0.04l0.045,1.18l0.831-0.032L51.64,5.22l-0.831,0.032
			l0.052,1.356l1.164-0.044l0.022,0.572l-1.799,0.068L50.083,2.94z"/>
		<path fill="#FFFFFF" d="M52.736,2.869l0.79,0.012c0.962,0.015,1.29,0.286,1.274,1.247c-0.014,0.897-0.358,1.257-1.19,1.244
			l-0.278-0.004l-0.029,1.775l-0.635-0.01L52.736,2.869z M53.547,4.822c0.475,0.008,0.597-0.191,0.606-0.734
			c0.007-0.46-0.138-0.657-0.554-0.664l-0.237-0.004L53.34,4.819L53.547,4.822z"/>
		<path fill="#FFFFFF" d="M56.369,7.361c-0.759-0.057-0.993-0.566-0.914-1.597l0.106-1.383c0.08-1.03,0.389-1.498,1.148-1.44
			c0.67,0.051,0.996,0.525,0.931,1.385l-0.017,0.212l-0.646-0.05l0.026-0.335c0.033-0.43-0.057-0.65-0.336-0.671
			c-0.278-0.021-0.401,0.183-0.435,0.612l-0.158,2.054c-0.033,0.43,0.057,0.65,0.336,0.671c0.278,0.021,0.401-0.183,0.435-0.612
			l0.031-0.406l0.646,0.049l-0.021,0.271C57.435,6.987,57.045,7.413,56.369,7.361z"/>
		<path fill="#FFFFFF" d="M58.712,3.213L59.347,3.3l-0.301,2.166l-0.076,0.412l0.127-0.268l1.005-1.974l0.031-0.228l0.623,0.086
			l-0.586,4.221l-0.623-0.085l0.305-2.195l0.081-0.411l-0.134,0.279L58.795,7.27l-0.035,0.251l-0.635-0.086L58.712,3.213z"/>
		<path fill="#FFFFFF" d="M62.088,4.281l-0.577-0.112l0.105-0.533l1.778,0.346l-0.105,0.533l-0.577-0.113l-0.723,3.654l-0.624-0.121
			L62.088,4.281z"/>
		<path fill="#FFFFFF" d="M64.225,4.176l1.646,0.406l-0.138,0.555l-1.031-0.254l-0.286,1.144l0.806,0.199l-0.141,0.566l-0.807-0.199
			l-0.329,1.316l1.128,0.278l-0.139,0.555L63.19,8.311L64.225,4.176z"/>
		<path fill="#FFFFFF" d="M66.972,5.466l-0.562-0.17l0.159-0.519L68.3,5.301l-0.159,0.519l-0.563-0.17l-1.09,3.557l-0.607-0.184
			L66.972,5.466z"/>
		<path fill="#FFFFFF" d="M70.583,6.094l1.828,0.731l-1.603,3.956l-0.589-0.236l1.385-3.419l-0.65-0.26l-1.386,3.42l-0.59-0.236
			L70.583,6.094z"/>
		<path fill="#FFFFFF" d="M73.493,7.297l0.714,0.336c0.869,0.411,1.055,0.792,0.639,1.661c-0.387,0.81-0.851,0.996-1.603,0.641
			l-0.251-0.119l-0.769,1.604l-0.574-0.271L73.493,7.297z M73.416,9.41c0.429,0.203,0.624,0.072,0.857-0.418
			c0.199-0.416,0.15-0.655-0.227-0.832l-0.214-0.102l-0.604,1.263L73.416,9.41z"/>
		<path fill="#FFFFFF" d="M77.081,9.005c0.66,0.362,0.667,0.925,0.164,1.829l-0.675,1.213c-0.503,0.904-0.98,1.201-1.646,0.835
			c-0.665-0.365-0.666-0.925-0.163-1.829l0.675-1.213C75.938,8.937,76.416,8.64,77.081,9.005z M75.163,11.66
			c-0.21,0.377-0.22,0.614,0.024,0.748c0.244,0.135,0.442,0,0.651-0.377l1.003-1.802c0.209-0.376,0.219-0.614-0.025-0.748
			c-0.244-0.134-0.441,0-0.651,0.377L75.163,11.66z"/>
		<path fill="#FFFFFF" d="M78.952,10.164l0.688,0.443l-0.915,2.118c-0.102,0.244-0.266,0.56-0.483,0.947
			c0.252-0.343,0.476-0.621,0.67-0.82l1.61-1.677l0.663,0.427l-2.336,3.579L78.4,14.891c0.195-0.31,0.389-0.606,0.573-0.889
			c0.591-0.906,1.133-1.682,1.63-2.325l-2.752,2.861l-0.264-0.17l1.556-3.631c-0.595,0.988-1.291,2.087-2.079,3.294l-0.449-0.289
			L78.952,10.164z"/>
		<path fill="#FFFFFF" d="M82.22,12.325l0.504,0.385l-1.029,1.329l0.255,0.194c0.541,0.415,0.619,0.972,0.035,1.726
			c-0.551,0.711-1.127,0.709-1.622,0.332L79.6,15.707L82.22,12.325z M80.445,15.652l0.211,0.163c0.16,0.122,0.426,0.243,0.825-0.271
			c0.396-0.51,0.269-0.763,0.085-0.903l-0.212-0.162L80.445,15.652z M81.385,17.071l2.62-3.382l0.504,0.385l-2.62,3.382
			L81.385,17.071z"/>
		<path fill="#FFFFFF" d="M85.501,14.898l0.472,0.431l-2.511,2.717l0.464,0.423l2.511-2.717l0.472,0.432L84.399,18.9l0.464,0.423
			l2.511-2.716l0.473,0.431l-2.905,3.142l-2.345-2.139L85.501,14.898z"/>
		<path fill="#FFFFFF" d="M89.215,19.302l-0.393-0.418c-0.473,0.431-0.941,0.84-1.374,1.21c-0.484,0.409-0.718,0.594-0.898,0.696
			c-0.325,0.181-0.778,0.278-1.098-0.062c-0.11-0.116-0.105-0.121-0.125-0.159l0.425-0.394c0.016,0.025,0.024,0.042,0.041,0.06
			c0.125,0.133,0.271,0.151,0.499,0.021c0.141-0.083,0.37-0.263,1.045-0.833c0.458-0.394,1.053-0.929,1.521-1.346l1.22,1.297
			l-3.137,2.911l-0.438-0.465L89.215,19.302z"/>
		<path fill="#FFFFFF" d="M90.855,20.25l1.087,1.297L91.5,21.913l-0.681-0.812l-0.913,0.756l0.532,0.635l-0.452,0.375l-0.533-0.636
			l-1.05,0.869l0.746,0.889l-0.443,0.366l-1.152-1.375L90.855,20.25z"/>
		<path fill="#FFFFFF" d="M92.523,22.291l0.377,0.506l-1.431,1.051l0.417,0.56l1.43-1.052l0.377,0.507l-3.447,2.534l-0.377-0.507
			l1.549-1.139l-0.417-0.559l-1.549,1.14l-0.378-0.507L92.523,22.291z"/>
		<path fill="#FFFFFF" d="M94.379,24.834l0.346,0.529l-1.495,0.963l0.381,0.584l1.495-0.963l0.346,0.53l-3.603,2.32l-0.346-0.53
			l1.62-1.042l-0.381-0.584l-1.62,1.042l-0.346-0.529L94.379,24.834z"/>
		<path fill="#FFFFFF" d="M96.093,27.52l0.305,0.554l-1.479,0.804l0.153,0.279c0.328,0.595,0.172,1.137-0.666,1.593
			c-0.792,0.43-1.319,0.199-1.619-0.345l-0.461-0.838L96.093,27.52z M93.121,29.854l0.128,0.232
			c0.097,0.176,0.291,0.394,0.864,0.082c0.568-0.308,0.555-0.591,0.444-0.792l-0.128-0.233L93.121,29.854z M93.406,31.527
			l3.767-2.046l0.305,0.554l-3.767,2.046L93.406,31.527z"/>
		<path fill="#FFFFFF" d="M96.3,32.286l1.588-1.423l0.258,0.551l-1.284,1.009l1.603-0.329l0.262,0.562l-2.126,0.285l-1.75,1.556
			l-0.252-0.541l1.469-1.16l-1.84,0.367l-0.26-0.556L96.3,32.286z"/>
		<path fill="#FFFFFF" d="M99.209,35.3l-0.205-0.548l0.512-0.188l0.629,1.687l-0.513,0.188l-0.204-0.547l-3.513,1.292l-0.221-0.592
			L99.209,35.3z"/>
		<path fill="#FFFFFF" d="M100.417,37.064l0.508,1.608l-0.549,0.171l-0.318-1.007l-1.132,0.353l0.249,0.788l-0.561,0.175
			l-0.249-0.787l-1.302,0.405l0.348,1.103l-0.549,0.171l-0.538-1.705L100.417,37.064z"/>
		<path fill="#FFFFFF" d="M99.314,40.51l1.825-1.107l0.151,0.589l-1.449,0.756l1.635-0.03l0.154,0.601l-2.143-0.109l-2.008,1.208
			l-0.148-0.578l1.66-0.87l-1.876,0.024l-0.153-0.595L99.314,40.51z"/>
		<path fill="#FFFFFF" d="M101.823,42.18l0.122,0.62l-1.75,0.337l0.134,0.684l1.749-0.338l0.122,0.62l-4.216,0.813l-0.121-0.62
			l1.895-0.365l-0.133-0.684l-1.896,0.366l-0.12-0.62L101.823,42.18z"/>
		<path fill="#FFFFFF" d="M102.596,46.215c0.097,0.743-0.356,1.081-1.387,1.213l-1.384,0.178c-1.03,0.132-1.554-0.074-1.652-0.823
			c-0.098-0.749,0.356-1.081,1.386-1.213l1.384-0.179C101.974,45.26,102.498,45.466,102.596,46.215z M99.306,46.251
			c-0.43,0.055-0.628,0.188-0.592,0.463c0.036,0.275,0.261,0.353,0.691,0.298l2.056-0.265c0.43-0.055,0.629-0.188,0.593-0.462
			c-0.036-0.275-0.262-0.353-0.692-0.298L99.306,46.251z"/>
		<path fill="#FFFFFF" d="M102.261,49.72l-0.039-0.572c-0.64,0.037-1.263,0.061-1.834,0.074c-0.636,0.012-0.934,0.009-1.139-0.025
			c-0.367-0.064-0.779-0.273-0.811-0.738c-0.011-0.159-0.005-0.16,0.004-0.201l0.581-0.039c-0.004,0.03-0.008,0.048-0.007,0.071
			c0.012,0.183,0.114,0.288,0.373,0.33c0.163,0.025,0.454,0.029,1.34,0.012c0.606-0.016,1.406-0.058,2.036-0.087l0.118,1.771
			L98.6,50.599l-0.042-0.635L102.261,49.72z"/>
		<path fill="#FFFFFF" d="M103.011,52.426c0.012,0.749-0.476,1.034-1.515,1.051l-1.395,0.022c-1.039,0.016-1.536-0.247-1.548-1.002
			c-0.013-0.755,0.477-1.034,1.515-1.05l1.396-0.022C102.502,51.407,102.999,51.671,103.011,52.426z M99.74,52.095
			c-0.434,0.007-0.646,0.116-0.641,0.394c0.004,0.277,0.221,0.379,0.654,0.372l2.072-0.033c0.433-0.007,0.646-0.116,0.641-0.394
			c-0.004-0.277-0.22-0.38-0.653-0.373L99.74,52.095z"/>
		<path fill="#FFFFFF" d="M102.894,54.63l-0.094,1.783l-0.593-0.031l0.061-1.153l-3.691-0.192l0.033-0.63L102.894,54.63z"/>
		<path fill="#FFFFFF" d="M102.731,57.252l-0.071,0.633l-2.189-0.242l-0.417-0.063l0.273,0.119l2.015,0.947l0.23,0.026l-0.07,0.621
			l-4.266-0.471l0.069-0.622l2.219,0.245l0.417,0.07l-0.285-0.126l-2.01-0.946l-0.253-0.028l0.071-0.632L102.731,57.252z"/>
		<path fill="#FFFFFF" d="M102.325,60.483l-0.113,0.627l-2.168-0.387l-0.411-0.091l0.265,0.137l1.946,1.078l0.227,0.041l-0.11,0.615
			l-4.224-0.753l0.112-0.615l2.196,0.393l0.411,0.097l-0.275-0.146l-1.94-1.076l-0.251-0.045l0.114-0.626L102.325,60.483z
			 M103.054,62.519c-0.479-0.085-0.724-0.369-0.618-0.949c0.104-0.581,0.434-0.762,0.912-0.676l-0.096,0.534
			c-0.233-0.042-0.417,0.004-0.453,0.207c-0.037,0.203,0.119,0.309,0.353,0.35L103.054,62.519z"/>
		<path fill="#FFFFFF" d="M101.352,65.18l-0.174,0.614l-2.124-0.594l-0.401-0.13l0.25,0.162l1.835,1.261l0.223,0.062l-0.17,0.603
			l-4.137-1.156l0.171-0.603l2.151,0.601l0.4,0.137l-0.26-0.171l-1.83-1.259l-0.247-0.069l0.174-0.614L101.352,65.18z"/>
		<path fill="#FFFFFF" d="M95.262,69.871l0.574-1.462l-0.896-0.348l0.224-0.571l1.438,0.558l-0.102,0.258
			c0.141,0.163,0.309,0.316,0.549,0.485c0.3,0.211,0.59,0.38,1.096,0.602c0.539,0.234,1.198,0.502,1.645,0.682l-0.628,1.599
			l-3.458-1.34l-0.125,0.319l-1.438-0.558l0.224-0.572L95.262,69.871z M95.938,69.74l2.915,1.13l0.188-0.479
			c-0.898-0.361-1.366-0.548-1.856-0.84c-0.418-0.251-0.577-0.382-0.915-0.658L95.938,69.74z"/>
		<path fill="#FFFFFF" d="M98.664,72.832l-0.272,0.577l-1.994-0.928l-0.374-0.193l0.22,0.2l1.602,1.538l0.21,0.098l-0.267,0.566
			l-3.887-1.807l0.267-0.566l2.021,0.94l0.373,0.199l-0.229-0.21l-1.596-1.537l-0.231-0.107l0.272-0.577L98.664,72.832z"/>
		<path fill="#FFFFFF" d="M94.25,74.664c-0.394-0.194-0.633-0.25-0.791,0.034c-0.167,0.306,0.021,0.502,0.417,0.718
			c0.49,0.266,0.691,0.355,0.971-0.152l0.117-0.211l0.489,0.266l-0.117,0.212c-0.176,0.32-0.207,0.486,0.41,0.827
			c0.324,0.176,0.541,0.173,0.675-0.07c0.148-0.269,0.036-0.397-0.365-0.614l0.313-0.57c0.558,0.303,0.887,0.798,0.522,1.46
			c-0.311,0.564-0.719,0.752-1.443,0.359c-0.625-0.34-0.738-0.615-0.637-0.958l-0.011-0.005c-0.354,0.433-0.75,0.292-1.223,0.034
			c-0.782-0.424-0.941-0.935-0.573-1.603c0.378-0.688,1.025-0.584,1.558-0.296L94.25,74.664z"/>
		<path fill="#FFFFFF" d="M95.575,78.674l-0.438,0.695l-3.996-1.704l0.343-0.546l0.792,0.366l0.337-0.536l-0.683-0.541l0.331-0.526
			L95.575,78.674z M92.793,77.735l2.244,1.112l0.016-0.024l-1.985-1.524L92.793,77.735z"/>
		<path fill="#FFFFFF" d="M94.296,80.645l-0.371,0.519l-1.796-1.266l-0.333-0.256l0.181,0.236l1.299,1.798l0.189,0.133l-0.364,0.509
			l-3.5-2.466l0.364-0.509l1.819,1.283l0.331,0.26l-0.188-0.247l-1.294-1.794l-0.208-0.147l0.371-0.519L94.296,80.645z
			 M94.085,82.793c-0.396-0.279-0.497-0.639-0.153-1.12c0.343-0.48,0.718-0.506,1.115-0.226L94.73,81.89
			c-0.194-0.137-0.378-0.173-0.499-0.005c-0.12,0.168-0.024,0.329,0.169,0.466L94.085,82.793z"/>
		<path fill="#FFFFFF" d="M92.365,83.286l-0.401,0.49l-1.384-1.115l-0.442,0.541l1.384,1.116l-0.4,0.49l-3.336-2.689l0.401-0.49
			l1.499,1.209l0.442-0.541l-1.5-1.208l0.401-0.49L92.365,83.286z"/>
		<path fill="#FFFFFF" d="M90.097,85.961l-0.557,0.606l-3.617-2.394L86.36,83.7l0.712,0.502l0.429-0.466l-0.572-0.655l0.42-0.458
			L90.097,85.961z M87.534,84.541l2.003,1.497l0.02-0.021l-1.674-1.854L87.534,84.541z"/>
	</g>
	<g id="XMLID_47_">
		<path fill="#FFFFFF" d="M25.033,95.045l-0.488-0.326l0.305-0.45l1.501,1.003l-0.304,0.45l-0.487-0.326l-2.091,3.084l-0.526-0.353
			L25.033,95.045z"/>
		<path fill="#FFFFFF" d="M26.872,95.596l0.676,0.405c0.823,0.495,0.97,0.892,0.47,1.716c-0.467,0.767-0.947,0.906-1.659,0.479
			l-0.239-0.143l-0.924,1.52l-0.544-0.326L26.872,95.596z M26.583,97.69c0.407,0.244,0.613,0.133,0.895-0.331
			c0.24-0.395,0.214-0.637-0.141-0.851l-0.204-0.122l-0.728,1.198L26.583,97.69z"/>
		<path fill="#FFFFFF" d="M29.448,97.092l0.727,0.389l-1.452,4.066l-0.57-0.304l0.316-0.809l-0.56-0.298l-0.499,0.71l-0.549-0.293
			L29.448,97.092z M28.687,99.908l0.972-2.294L29.633,97.6l-1.401,2.065L28.687,99.908z"/>
		<path fill="#FFFFFF" d="M31.278,102.753l-1.433-0.659l-0.404,0.867l-0.561-0.259l0.648-1.391l0.253,0.117
			c0.171-0.13,0.336-0.287,0.521-0.515c0.23-0.284,0.418-0.562,0.672-1.049c0.269-0.52,0.578-1.158,0.785-1.589l1.568,0.722
			l-1.558,3.344l0.313,0.144l-0.649,1.392l-0.56-0.257L31.278,102.753z M31.188,102.075l1.313-2.82l-0.468-0.216
			c-0.417,0.868-0.634,1.32-0.957,1.789c-0.277,0.399-0.418,0.549-0.718,0.866L31.188,102.075z"/>
		<path fill="#FFFFFF" d="M34.217,99.377l0.597,0.231l-0.8,2.037l-0.169,0.384l0.186-0.232l1.44-1.687l0.084-0.214l0.586,0.227
			l-1.56,3.969l-0.586-0.228l0.811-2.064l0.175-0.38l-0.196,0.24l-1.438,1.683l-0.093,0.235l-0.597-0.23L34.217,99.377z"/>
		<path fill="#FFFFFF" d="M37.012,100.428l0.61,0.195l-1.138,3.507l0.655,0.209l1.139-3.507l0.61,0.196l-1.139,3.507l0.328,0.105
			l-0.474,1.458l-0.587-0.188l0.295-0.909l-1.616-0.518L37.012,100.428z"/>
		<path fill="#FFFFFF" d="M39.806,101.296l0.621,0.159l-0.548,2.118l-0.122,0.401l0.157-0.253l1.226-1.846l0.057-0.223l0.609,0.155
			l-1.068,4.128l-0.609-0.156l0.555-2.146l0.128-0.399l-0.166,0.262l-1.224,1.842l-0.064,0.246l-0.621-0.159L39.806,101.296z"/>
		<path fill="#FFFFFF" d="M42.685,102.004l0.629,0.121l-0.42,2.148l-0.098,0.408l0.142-0.261l1.113-1.918l0.044-0.226l0.618,0.12
			l-0.819,4.185l-0.618-0.119l0.426-2.177l0.104-0.407l-0.15,0.271l-1.112,1.912l-0.049,0.249l-0.629-0.123L42.685,102.004z"/>
		<path fill="#FFFFFF" d="M47.017,102.734l0.639,0.066l-0.229,2.178l-0.063,0.415l0.118-0.272l0.941-2.009l0.024-0.229l0.626,0.065
			l-0.447,4.245l-0.627-0.066l0.233-2.208l0.068-0.414l-0.125,0.283l-0.94,2.003l-0.027,0.252l-0.638-0.065L47.017,102.734z"/>
		<path fill="#FFFFFF" d="M52.279,107.451c-0.76-0.015-1.022-0.509-1.003-1.541l0.027-1.386c0.02-1.031,0.302-1.515,1.062-1.5
			c0.67,0.013,1.023,0.467,1.007,1.329l-0.004,0.212l-0.647-0.012l0.007-0.337c0.008-0.43-0.095-0.645-0.374-0.65
			c-0.279-0.005-0.39,0.206-0.398,0.636l-0.04,2.056c-0.008,0.432,0.094,0.646,0.374,0.65c0.279,0.005,0.39-0.205,0.398-0.635
			l0.008-0.407l0.647,0.012l-0.005,0.272C53.32,107.016,52.956,107.464,52.279,107.451z"/>
		<path fill="#FFFFFF" d="M54.401,103.64l-0.587,0.017l-0.016-0.543l1.811-0.053l0.017,0.544l-0.589,0.017l0.11,3.722l-0.636,0.018
			L54.401,103.64z"/>
		<path fill="#FFFFFF" d="M56.492,103.003l0.823-0.061l0.978,4.206l-0.646,0.048l-0.171-0.851l-0.634,0.046l-0.036,0.867
			l-0.623,0.046L56.492,103.003z M57.374,105.784l-0.422-2.454l-0.03,0.002l-0.063,2.49L57.374,105.784z"/>
		<path fill="#FFFFFF" d="M58.561,102.836l1.872-0.238l0.072,0.55l-1.242,0.158l0.149,1.152l0.335-0.043
			c0.6-0.076,1.157,0.25,1.273,1.152c0.119,0.917-0.317,1.294-1,1.382l-0.912,0.116L58.561,102.836z M59.667,106.435l0.277-0.035
			c0.27-0.036,0.499-0.212,0.431-0.739c-0.073-0.568-0.328-0.725-0.61-0.689l-0.282,0.037L59.667,106.435z"/>
		<path fill="#FFFFFF" d="M61.394,102.45l0.631-0.118l0.405,2.153l0.06,0.415l0.035-0.294l0.325-2.193l-0.042-0.226l0.619-0.115
			l0.79,4.194l-0.619,0.116l-0.41-2.181l-0.054-0.417l-0.039,0.308l-0.326,2.185l0.046,0.25l-0.631,0.117L61.394,102.45z"/>
		<path fill="#FFFFFF" d="M65.77,102.109l-0.559,0.141c0.151,0.619,0.286,1.224,0.402,1.779c0.125,0.62,0.174,0.911,0.178,1.117
			c0.002,0.371-0.131,0.813-0.586,0.925c-0.156,0.04-0.157,0.034-0.201,0.032l-0.142-0.562c0.03,0,0.049,0.001,0.072-0.006
			c0.178-0.044,0.265-0.162,0.259-0.423c-0.004-0.164-0.052-0.45-0.227-1.312c-0.125-0.591-0.309-1.365-0.451-1.975l1.735-0.433
			l1.046,4.137l-0.623,0.155L65.77,102.109z"/>
		<path fill="#FFFFFF" d="M67.141,101.151l0.606-0.188l0.503,1.599l0.328-0.103c0.651-0.202,1.155,0.056,1.44,0.961
			c0.269,0.856-0.063,1.323-0.658,1.508l-0.94,0.291L67.141,101.151z M68.86,104.503l0.278-0.086c0.192-0.06,0.444-0.206,0.25-0.826
			c-0.192-0.613-0.474-0.656-0.695-0.587l-0.277,0.086L68.86,104.503z"/>
		<path fill="#FFFFFF" d="M69.855,100.272l0.595-0.223l0.63,1.657l0.656-0.247l-0.629-1.656l0.594-0.224l1.519,3.993l-0.595,0.224
			l-0.682-1.794l-0.655,0.246l0.681,1.794l-0.594,0.224L69.855,100.272z"/>
		<path fill="#FFFFFF" d="M73.396,98.764c0.689-0.306,1.145,0.029,1.568,0.973l0.569,1.267c0.424,0.944,0.375,1.502-0.32,1.81
			c-0.695,0.308-1.145-0.029-1.569-0.973l-0.569-1.266C72.652,99.631,72.701,99.072,73.396,98.764z M74.375,101.887
			c0.177,0.393,0.361,0.544,0.617,0.431c0.255-0.113,0.265-0.351,0.089-0.745l-0.846-1.882c-0.177-0.394-0.361-0.544-0.616-0.431
			c-0.256,0.113-0.266,0.35-0.089,0.744L74.375,101.887z"/>
		<path fill="#FFFFFF" d="M78.017,101.471c-0.676,0.347-1.146,0.037-1.622-0.881l-0.641-1.233c-0.478-0.917-0.461-1.478,0.214-1.825
			c0.597-0.306,1.127-0.072,1.524,0.693l0.099,0.188l-0.575,0.296L76.86,98.41c-0.199-0.382-0.392-0.523-0.641-0.396
			c-0.248,0.128-0.245,0.365-0.045,0.748l0.952,1.831c0.199,0.383,0.392,0.523,0.64,0.396c0.248-0.127,0.245-0.365,0.045-0.748
			l-0.188-0.362l0.576-0.295l0.124,0.241C78.726,100.596,78.618,101.162,78.017,101.471z"/>
		<path fill="#FFFFFF" d="M78.063,97.116l-0.508,0.293l-0.274-0.469l1.565-0.904l0.274,0.469l-0.508,0.293l1.882,3.218l-0.549,0.316
			L78.063,97.116z"/>
		<path fill="#FFFFFF" d="M79.378,95.71l0.532-0.346l0.923,1.404l0.288-0.187c0.572-0.37,1.128-0.259,1.651,0.537
			c0.493,0.751,0.301,1.291-0.221,1.63l-0.826,0.535L79.378,95.71z M81.952,98.473l0.246-0.158c0.168-0.109,0.372-0.318,0.014-0.862
			c-0.354-0.539-0.636-0.505-0.83-0.378l-0.243,0.157L81.952,98.473z"/>
	</g>
</g>
</svg>
